<?xml version="1.0" standalone="no"?>
<!DOCTYPE svg PUBLIC "-//W3C//DTD SVG 20010904//EN"
 "http://www.w3.org/TR/2001/REC-SVG-20010904/DTD/svg10.dtd">
<svg version="1.0" xmlns="http://www.w3.org/2000/svg"
 width="1024.000000pt" height="1024.000000pt" viewBox="0 0 1024.000000 1024.000000"
 preserveAspectRatio="xMidYMid meet">
<metadata>
Created by potrace 1.11, written by Peter Selinger 2001-2013
</metadata>
<g transform="translate(0.000000,1024.000000) scale(0.100000,-0.100000)"
fill="#000000" stroke="none">
<path d="M5704 8252 c-14 -2 -29 -21 -48 -60 -24 -51 -32 -58 -59 -60 -17 -2
-32 -4 -33 -5 -19 -26 -266 -530 -354 -722 -18 -38 -43 -95 -57 -125 -36 -77
-263 -610 -263 -616 0 -3 -9 -24 -19 -47 -10 -23 -71 -172 -135 -332 -64 -159
-125 -310 -136 -335 -10 -25 -42 -106 -70 -180 -29 -74 -58 -148 -65 -165 -7
-16 -68 -172 -135 -345 -67 -173 -128 -328 -135 -345 -7 -16 -46 -113 -86
-215 -40 -102 -73 -186 -73 -186 -1 -1 -44 -5 -96 -8 -113 -8 -192 -15 -240
-22 -19 -2 -55 -7 -80 -9 -25 -3 -56 -7 -70 -10 -14 -2 -41 -7 -60 -10 -454
-72 -933 -239 -1340 -468 -63 -35 -133 -75 -154 -88 -25 -14 -36 -18 -31 -9 5
8 41 65 80 126 38 60 75 119 82 130 7 10 32 51 56 89 45 72 138 221 235 380
30 50 145 239 254 420 110 182 217 357 238 390 20 33 102 166 181 295 122 201
364 589 528 848 71 112 380 577 444 667 31 44 73 104 94 134 70 99 367 496
376 502 9 7 16 238 7 240 -3 1 -62 2 -132 3 l-127 1 -110 -80 c-124 -92 -152
-113 -231 -175 -32 -25 -75 -58 -96 -75 -169 -132 -641 -533 -848 -720 -89
-80 -192 -173 -208 -186 -22 -20 -180 -164 -218 -199 -15 -14 -64 -59 -110
-100 -46 -41 -88 -80 -94 -85 -6 -6 -42 -39 -81 -74 -38 -35 -92 -85 -120
-110 -27 -26 -120 -110 -205 -187 -85 -76 -157 -141 -160 -144 -3 -3 -67 -61
-142 -128 -76 -67 -174 -158 -219 -202 l-81 -81 -2 -109 c-1 -104 0 -110 19
-111 11 0 64 -1 118 0 l99 1 86 77 c48 43 91 83 97 89 5 6 80 73 165 150 85
76 157 141 160 144 3 3 28 25 55 49 46 41 139 125 290 261 33 30 96 87 139
125 44 39 84 75 90 80 6 6 63 57 126 114 63 57 133 120 155 140 22 20 87 79
145 131 58 52 107 97 110 100 3 3 25 23 50 45 25 22 83 74 129 115 103 94 122
104 84 49 -17 -24 -197 -309 -400 -634 -204 -324 -453 -720 -553 -880 -101
-159 -189 -301 -197 -315 -7 -14 -44 -72 -81 -130 -64 -99 -600 -952 -625
-995 -7 -11 -28 -44 -48 -75 -19 -30 -117 -186 -218 -347 l-182 -291 -2 -116
-2 -116 133 0 133 0 147 114 c378 292 523 383 796 501 178 77 521 203 600 220
10 3 33 9 50 14 92 30 366 94 454 107 20 3 43 7 50 9 7 3 34 7 60 11 26 3 65
10 87 14 22 5 67 12 100 15 33 4 81 11 108 15 46 7 47 6 47 -19 0 -14 2 -132
4 -261 5 -221 7 -257 22 -320 3 -14 8 -36 10 -50 10 -57 17 -87 30 -127 18
-51 106 -186 146 -223 35 -33 165 -102 233 -125 42 -14 145 -21 225 -16 13 1
16 13 15 59 l0 57 45 1 c25 1 52 2 60 3 13 1 15 22 15 129 l0 127 -92 5 c-88
5 -93 6 -141 45 -57 46 -97 104 -135 195 -43 106 -55 176 -52 312 7 293 16
355 70 473 18 38 208 521 268 680 171 453 208 552 214 565 3 8 7 17 7 20 1 3
7 19 13 35 7 17 71 179 142 362 71 182 136 347 144 365 8 18 29 69 46 113 18
44 36 89 41 100 54 121 140 332 140 342 0 7 5 13 10 13 6 0 10 6 10 14 0 40
345 744 475 971 21 36 23 52 22 153 0 61 -3 112 -6 112 -42 3 -191 4 -207 2z"/>
<path d="M7014 7240 c-23 -100 -21 -98 -64 -98 -53 -1 -58 -5 -66 -60 -5 -37
-58 -304 -100 -502 -26 -126 -117 -473 -165 -635 -69 -231 -84 -278 -134 -430
-83 -248 -223 -625 -292 -785 -9 -19 -21 -48 -28 -65 -204 -483 -419 -915
-710 -1430 -90 -159 -300 -502 -392 -643 -51 -76 -60 -85 -122 -113 -100 -47
-231 -137 -231 -159 0 -12 -23 -35 -60 -61 l-61 -42 3 -135 3 -136 152 2 c147
2 155 3 195 28 24 15 75 59 113 98 118 119 125 124 190 135 33 6 74 13 90 16
17 3 66 12 110 20 44 8 91 17 105 20 14 3 45 10 70 15 427 84 878 228 1205
384 332 159 575 340 883 661 245 255 383 439 523 700 37 70 37 70 38 193 l0
122 -117 0 -117 0 -23 -60 c-23 -58 -25 -60 -61 -60 -34 0 -38 -3 -50 -37 -68
-189 -261 -482 -407 -618 -93 -87 -135 -123 -223 -189 -246 -185 -528 -347
-786 -451 -38 -15 -83 -33 -100 -40 -35 -15 -176 -62 -294 -100 -93 -29 -383
-101 -446 -110 -22 -4 -55 -10 -74 -15 -19 -5 -37 -8 -39 -5 -2 2 23 55 56
117 33 62 87 165 120 228 33 63 90 171 126 240 91 172 414 818 456 910 18 41
53 117 77 168 24 51 43 95 43 97 0 2 16 39 36 82 219 472 424 1012 538 1414
55 195 133 532 161 701 3 18 10 58 15 88 5 30 12 75 15 100 3 25 10 72 15 105
5 33 12 85 15 115 3 30 8 71 10 90 16 137 16 150 3 151 -7 1 -55 2 -106 3 -91
1 -93 1 -98 -24z"/>
</g>
</svg>
